<?xml version="1.0" standalone="no"?>
<!DOCTYPE svg PUBLIC "-//W3C//DTD SVG 20010904//EN"
 "http://www.w3.org/TR/2001/REC-SVG-20010904/DTD/svg10.dtd">
<svg version="1.0" xmlns="http://www.w3.org/2000/svg"
 width="310.000000pt" height="310.000000pt" viewBox="0 0 310.000000 310.000000"
 preserveAspectRatio="xMidYMid meet">
<metadata>
Created by potrace 1.11, written by Peter Selinger 2001-2013
</metadata>
<g transform="translate(0.000000,310.000000) scale(0.100000,-0.100000)"
fill="#000000" stroke="none">
<path d="M0 1680 l0 -1420 610 0 c466 0 610 3 610 12 0 7 -12 25 -27 40 -25
26 -32 28 -105 28 -262 0 -499 145 -613 375 -59 118 -78 217 -72 365 6 149 31
252 87 364 l40 78 0 630 c0 608 1 630 20 668 11 21 36 51 57 67 31 24 46 28
97 28 60 0 64 -2 269 -123 123 -73 212 -120 220 -116 6 4 123 86 259 181 136
95 251 173 257 173 7 0 11 -37 11 -105 0 -58 4 -105 9 -105 5 0 73 32 151 70
78 39 147 72 154 73 7 1 13 -32 16 -105 l5 -107 134 82 c130 79 136 82 196 82
52 0 68 -5 97 -27 71 -54 68 -26 68 -720 l0 -624 35 -41 c91 -106 128 -236
129 -448 1 -161 -14 -237 -69 -345 -114 -225 -358 -369 -626 -370 -82 0 -87
-1 -112 -30 -15 -16 -27 -34 -27 -40 0 -7 207 -10 610 -10 l610 0 0 1420 0
1420 -1550 0 -1550 0 0 -1420z"/>
<path d="M676 2774 c-14 -14 -16 -87 -16 -656 0 -542 -2 -644 -14 -657 -31
-34 -78 -146 -96 -229 -54 -243 -4 -449 144 -598 120 -119 244 -166 430 -163
l110 3 37 -51 c68 -91 166 -138 284 -137 120 2 223 56 280 147 l29 45 110 -5
c83 -4 129 -1 180 11 167 40 304 145 374 289 48 98 62 160 62 270 -1 172 -42
306 -119 390 l-41 44 0 641 c0 569 -2 642 -16 656 -8 9 -22 16 -31 16 -9 0
-112 -58 -231 -130 -118 -71 -219 -130 -223 -130 -5 0 -9 52 -9 115 0 63 -2
115 -5 115 -3 0 -73 -34 -156 -75 -82 -42 -154 -73 -159 -70 -6 4 -10 42 -10
86 0 47 -4 79 -10 79 -6 0 -87 -54 -182 -121 -94 -66 -181 -125 -194 -131 -20
-10 -50 5 -252 126 -126 75 -236 136 -245 136 -8 0 -23 -7 -31 -16z m244 -231
c66 -42 120 -82 120 -88 0 -6 -14 -19 -30 -28 -44 -27 -142 -120 -175 -166
-15 -23 -32 -41 -36 -41 -5 0 -9 90 -9 200 0 110 2 200 5 200 2 0 59 -35 125
-77z m1380 -148 c0 -105 -4 -185 -9 -185 -5 0 -26 22 -46 50 -37 50 -151 160
-167 160 -4 0 -8 6 -8 14 0 14 195 145 218 146 9 0 12 -44 12 -185z m-940
-370 c78 -39 126 -90 164 -169 27 -56 36 -67 41 -51 31 99 94 173 187 222 46
23 65 27 143 27 81 0 96 -3 150 -31 76 -40 126 -92 162 -168 26 -57 28 -69 30
-220 2 -87 7 -162 11 -165 4 -3 29 -23 56 -45 57 -45 125 -146 152 -225 26
-75 26 -215 0 -290 -37 -109 -124 -215 -221 -270 -76 -43 -147 -60 -253 -60
-168 0 -299 57 -377 166 -22 30 -43 54 -47 54 -4 0 -13 -10 -19 -22 -66 -123
-216 -198 -399 -198 -153 0 -263 45 -360 146 -167 173 -180 426 -34 625 20 27
55 63 79 80 l43 31 4 166 c3 155 5 171 30 223 33 73 84 128 149 164 72 38 102
45 187 40 51 -3 87 -12 122 -30z"/>
<path d="M1112 1870 c-43 -26 -72 -76 -72 -123 0 -48 14 -53 71 -28 57 26 94
26 164 -1 48 -18 58 -19 66 -7 13 18 3 84 -17 115 -41 62 -146 84 -212 44z"/>
<path d="M1789 1867 c-40 -26 -69 -79 -69 -125 0 -43 18 -48 76 -23 25 12 61
21 79 21 18 0 54 -9 79 -21 58 -25 76 -20 76 23 0 45 -30 98 -70 126 -46 31
-124 31 -171 -1z"/>
<path d="M1439 1606 c-59 -16 -103 -48 -119 -86 -11 -27 -10 -34 13 -68 14
-20 60 -74 104 -120 75 -79 80 -82 123 -82 44 0 47 2 137 97 50 53 97 107 104
119 15 30 -3 77 -40 103 -65 47 -221 65 -322 37z"/>
<path d="M935 1135 c-30 -29 -32 -58 -5 -85 36 -36 92 -19 105 33 5 20 1 32
-19 51 -31 32 -50 33 -81 1z"/>
<path d="M1150 1147 c-50 -25 -31 -117 24 -117 35 0 66 28 66 59 0 52 -45 81
-90 58z"/>
<path d="M1896 1139 c-31 -25 -34 -61 -6 -89 26 -26 60 -25 88 0 29 27 28 55
-3 85 -29 30 -45 31 -79 4z"/>
<path d="M2103 1145 c-45 -31 -20 -115 33 -115 33 0 64 29 64 59 0 55 -55 86
-97 56z"/>
<path d="M1031 964 c-27 -34 -26 -50 4 -79 29 -30 45 -31 79 -4 31 25 34 61 6
89 -28 28 -64 25 -89 -6z"/>
<path d="M1991 964 c-27 -35 -26 -49 5 -80 19 -20 31 -24 51 -19 52 13 69 69
33 105 -28 28 -64 25 -89 -6z"/>
</g>
</svg>
