<?xml version="1.0" standalone="no"?>
<!DOCTYPE svg PUBLIC "-//W3C//DTD SVG 20010904//EN"
 "http://www.w3.org/TR/2001/REC-SVG-20010904/DTD/svg10.dtd">
<svg version="1.0" xmlns="http://www.w3.org/2000/svg"
 width="310.000000pt" height="310.000000pt" viewBox="0 0 310.000000 310.000000"
 preserveAspectRatio="xMidYMid meet">
<metadata>
Created by potrace 1.11, written by Peter Selinger 2001-2013
</metadata>
<g transform="translate(0.000000,310.000000) scale(0.100000,-0.100000)"
fill="#000000" stroke="none">
<path d="M0 1685 l0 -1415 610 0 611 0 -23 30 c-22 30 -58 47 -76 36 -5 -3
-50 -1 -100 4 -203 21 -383 124 -497 285 -53 74 -78 130 -106 231 -19 69 -21
96 -16 224 6 167 25 250 88 370 l39 76 0 635 0 635 27 41 c39 60 91 86 161 81
52 -4 76 -15 261 -126 128 -76 208 -119 215 -113 40 30 515 361 520 361 3 0 6
-47 6 -103 0 -57 3 -106 6 -110 4 -3 73 28 155 69 82 40 153 74 159 74 6 0 10
-41 10 -105 0 -58 4 -105 8 -105 4 0 64 34 132 77 135 82 184 97 253 74 45
-15 93 -68 106 -118 7 -25 11 -252 11 -645 l0 -608 37 -47 c89 -117 118 -224
118 -443 0 -153 -2 -171 -27 -245 -52 -154 -168 -294 -306 -372 -108 -61 -193
-84 -322 -90 -111 -5 -116 -6 -147 -36 -18 -16 -31 -33 -29 -36 2 -3 277 -5
610 -3 l606 2 0 1415 0 1415 -1550 0 -1550 0 0 -1415z"/>
<path d="M677 2772 c-15 -17 -17 -77 -17 -658 l0 -639 -30 -45 c-40 -59 -65
-129 -84 -230 -62 -325 78 -598 358 -699 62 -22 88 -25 204 -26 l133 -1 18
-30 c87 -139 281 -195 434 -126 57 27 116 80 167 151 13 18 20 20 55 11 103
-25 256 -2 374 56 179 88 300 286 301 489 0 170 -43 318 -120 408 l-50 59 0
638 c0 563 -2 639 -15 650 -21 17 -35 10 -279 -139 -108 -67 -199 -121 -202
-121 -2 0 -4 52 -4 115 0 66 -4 115 -9 115 -6 0 -76 -31 -156 -70 -80 -38
-150 -70 -156 -70 -5 0 -9 38 -9 85 0 49 -4 85 -10 85 -5 0 -88 -56 -183 -124
-96 -69 -185 -128 -198 -131 -20 -5 -67 19 -226 114 -284 169 -270 162 -296
133z m220 -210 c48 -32 103 -67 121 -77 17 -11 32 -23 32 -27 0 -4 -19 -20
-43 -36 -51 -36 -129 -110 -179 -172 l-37 -45 -1 208 c0 121 4 207 9 207 5 0
49 -26 98 -58z m1403 -167 c0 -107 -3 -195 -7 -194 -5 0 -28 27 -53 59 -25 33
-75 85 -112 117 -38 31 -68 60 -68 63 0 6 222 149 233 150 4 0 7 -88 7 -195z
m-932 -370 c68 -37 128 -101 162 -171 23 -49 29 -56 35 -39 34 96 91 163 177
211 49 27 61 29 153 29 92 0 104 -2 153 -30 72 -39 125 -94 159 -163 27 -54
28 -65 31 -222 l4 -166 34 -24 c50 -34 122 -116 150 -172 123 -243 25 -538
-218 -653 -90 -43 -180 -57 -291 -45 -147 15 -262 77 -323 174 -28 43 -44 57
-44 37 0 -18 -81 -112 -119 -136 -93 -62 -247 -92 -378 -74 -147 20 -295 127
-359 259 -55 112 -66 212 -39 328 23 96 60 160 140 238 l73 71 4 164 c3 153 5
168 29 219 31 63 83 120 147 157 61 36 94 43 188 39 66 -3 92 -9 132 -31z"/>
<path d="M1109 1866 c-41 -28 -69 -79 -69 -124 0 -42 12 -46 66 -23 59 26 116
26 174 0 41 -19 45 -19 57 -3 15 20 7 70 -16 104 -50 71 -144 92 -212 46z"/>
<path d="M1800 1871 c-37 -19 -80 -88 -80 -126 0 -39 21 -46 69 -24 55 24 107
24 169 0 74 -30 92 1 51 86 -36 75 -133 105 -209 64z"/>
<path d="M1475 1613 c-56 -12 -90 -28 -121 -55 -49 -43 -46 -77 10 -142 133
-154 164 -176 224 -161 27 7 149 127 198 197 l26 37 -19 33 c-25 43 -72 74
-134 87 -49 11 -145 13 -184 4z"/>
<path d="M930 1135 c-20 -24 -15 -67 10 -87 27 -22 39 -22 68 -2 25 17 31 71
10 92 -17 17 -73 15 -88 -3z"/>
<path d="M1136 1134 c-33 -33 -4 -104 42 -104 26 0 62 37 62 64 0 48 -70 75
-104 40z"/>
<path d="M1885 1126 c-20 -30 -13 -61 20 -82 29 -19 60 -11 81 21 13 21 14 28
2 52 -10 22 -21 29 -50 31 -30 3 -40 -1 -53 -22z"/>
<path d="M2097 1132 c-10 -10 -17 -28 -17 -40 0 -27 33 -62 58 -62 26 0 62 37
62 64 0 49 -70 75 -103 38z"/>
<path d="M1042 974 c-25 -17 -31 -71 -10 -92 21 -21 75 -15 92 10 22 31 20 45
-9 73 -28 29 -42 31 -73 9z"/>
<path d="M2002 974 c-25 -17 -31 -71 -10 -92 21 -21 75 -15 92 10 22 31 20 45
-9 73 -28 29 -42 31 -73 9z"/>
</g>
</svg>
